<svg width="15" height="11" viewBox="0 0 15 11" fill="none" xmlns="http://www.w3.org/2000/svg">
<path id="Vector" d="M12.4746 1.19602C11.1525 0.534985 9.40864 0.186157 7.42137 0.186157C5.4341 0.186157 3.69028 0.534985 2.36812 1.19602C1.00126 1.87878 0.217529 2.86816 0.217529 3.9103V6.88961C0.217529 7.93174 1.00126 8.92112 2.36812 9.60388C3.69028 10.2649 5.43721 10.6137 7.42137 10.6137C9.40553 10.6137 11.1525 10.2649 12.4746 9.60388C13.8409 8.92112 14.6252 7.93174 14.6252 6.88961V3.9103C14.6252 2.86816 13.8415 1.87878 12.4746 1.19602ZM3.0351 2.52802C4.13493 1.97871 5.69245 1.67581 7.42137 1.67581C9.15029 1.67581 10.7078 1.97871 11.8076 2.52802C12.6261 2.93705 13.1348 3.46712 13.1348 3.9103C13.1348 4.35347 12.6261 4.88354 11.8076 5.29257C10.7078 5.84188 9.15029 6.14478 7.42137 6.14478C5.69245 6.14478 4.13493 5.84188 3.0351 5.29257C2.2166 4.88354 1.70798 4.35347 1.70798 3.9103C1.70798 3.46712 2.2166 2.93705 3.0351 2.52802ZM10.6507 8.71319C9.83996 8.93631 9.00668 9.06748 8.1666 9.10423V7.61457C9.00368 7.58043 9.83554 7.46591 10.6507 7.27257V8.71319ZM4.19206 7.27567C5.00721 7.46901 5.83906 7.58354 6.67615 7.61767V9.10733C5.83606 9.07058 5.00278 8.93941 4.19206 8.7163V7.27567ZM1.70798 6.88961V6.24036C1.91945 6.38262 2.13996 6.51096 2.36812 6.62457C2.47618 6.67857 2.58797 6.73009 2.70161 6.77974V8.08754C2.08059 7.7114 1.70798 7.26885 1.70798 6.88961ZM12.1411 8.08754V6.77974C12.2548 6.73009 12.3666 6.67857 12.4746 6.62457C12.7028 6.51096 12.9233 6.38262 13.1348 6.24036V6.88961C13.1348 7.26885 12.7621 7.7114 12.1411 8.08754Z" fill="#3879FE"/>
</svg>
