<svg width="13" height="13" viewBox="0 0 13 13" fill="none" xmlns="http://www.w3.org/2000/svg">
<path id="Vector" d="M3.2699 12.9676V11.6343H5.93799V9.56759C5.39325 9.44537 4.90699 9.21492 4.47921 8.87626C4.05142 8.53759 3.73726 8.11248 3.53671 7.60092C2.70293 7.50092 2.00544 7.13715 1.44426 6.50959C0.883068 5.88203 0.602251 5.14581 0.601807 4.30092V3.63426C0.601807 3.26759 0.732543 2.95381 0.994016 2.69292C1.25549 2.43203 1.56943 2.30137 1.93585 2.30092H3.2699V0.96759H9.94012V2.30092H11.2742C11.641 2.30092 11.9552 2.43159 12.2167 2.69292C12.4781 2.95426 12.6087 3.26803 12.6082 3.63426V4.30092C12.6082 5.14537 12.3274 5.88159 11.7658 6.50959C11.2041 7.13759 10.5066 7.50137 9.67331 7.60092C9.4732 8.11203 9.15926 8.53715 8.73147 8.87626C8.30369 9.21537 7.81721 9.44581 7.27203 9.56759V11.6343H9.94012V12.9676H3.2699ZM3.2699 6.16759V3.63426H1.93585V4.30092C1.93585 4.72315 2.05814 5.10381 2.30271 5.44292C2.54729 5.78203 2.86968 6.02359 3.2699 6.16759ZM9.94012 6.16759C10.3403 6.02315 10.6627 5.78137 10.9073 5.44226C11.1519 5.10315 11.2742 4.7227 11.2742 4.30092V3.63426H9.94012V6.16759Z" fill="#F5019B"/>
</svg>
