<svg width="15" height="12" viewBox="0 0 15 12" fill="none" xmlns="http://www.w3.org/2000/svg">
<path id="Vector" d="M12.6585 1.79599C11.3363 1.13496 9.59248 0.786133 7.60521 0.786133C5.61794 0.786133 3.87412 1.13496 2.55196 1.79599C1.1851 2.47875 0.401367 3.46813 0.401367 4.51027V7.48958C0.401367 8.53172 1.1851 9.5211 2.55196 10.2039C3.87412 10.8649 5.62105 11.2137 7.60521 11.2137C9.58937 11.2137 11.3363 10.8649 12.6585 10.2039C14.0247 9.5211 14.8091 8.53172 14.8091 7.48958V4.51027C14.8091 3.46813 14.0253 2.47875 12.6585 1.79599ZM3.21894 3.128C4.31877 2.57868 5.87629 2.27579 7.60521 2.27579C9.33413 2.27579 10.8917 2.57868 11.9915 3.128C12.81 3.53703 13.3186 4.0671 13.3186 4.51027C13.3186 4.95344 12.81 5.48351 11.9915 5.89255C10.8917 6.44186 9.33413 6.74475 7.60521 6.74475C5.87629 6.74475 4.31877 6.44186 3.21894 5.89255C2.40043 5.48351 1.89182 4.95344 1.89182 4.51027C1.89182 4.0671 2.40043 3.53703 3.21894 3.128ZM10.8345 9.31317C10.0238 9.53629 9.19052 9.66746 8.35043 9.7042V8.21455C9.18752 8.18041 10.0194 8.06588 10.8345 7.87255V9.31317ZM4.3759 7.87565C5.19104 8.06898 6.0229 8.18351 6.85998 8.21765V9.70731C6.0199 9.67056 5.18662 9.53939 4.3759 9.31627V7.87565ZM1.89182 7.48958V6.84034C2.10329 6.9826 2.3238 7.11094 2.55196 7.22455C2.66002 7.27855 2.7718 7.33006 2.88545 7.37972V8.68751C2.26443 8.31137 1.89182 7.86882 1.89182 7.48958ZM12.325 8.68751V7.37972C12.4386 7.33006 12.5504 7.27855 12.6585 7.22455C12.8866 7.11094 13.1071 6.9826 13.3186 6.84034V7.48958C13.3186 7.86882 12.946 8.31137 12.325 8.68751Z" fill="#F5019B"/>
</svg>
