<svg width="13" height="10" viewBox="0 0 13 10" fill="none" xmlns="http://www.w3.org/2000/svg">
<path id="Vector" d="M9.00629 8.16757V9.36757H0.601807V8.16757C0.601807 8.16757 0.601807 5.76758 4.80405 5.76758C9.00629 5.76758 9.00629 8.16757 9.00629 8.16757ZM6.90517 2.46758C6.90517 2.05223 6.78194 1.64622 6.55107 1.30088C6.32019 0.955535 5.99204 0.686373 5.60811 0.527429C5.22418 0.368485 4.80172 0.326898 4.39414 0.407927C3.98656 0.488956 3.61218 0.688961 3.31833 0.982652C3.02448 1.27634 2.82437 1.65053 2.7433 2.05789C2.66223 2.46525 2.70384 2.88749 2.86287 3.27121C3.02189 3.65494 3.2912 3.98291 3.63673 4.21366C3.98226 4.44441 4.38849 4.56757 4.80405 4.56757C5.3613 4.56757 5.89573 4.34633 6.28976 3.9525C6.6838 3.55867 6.90517 3.02453 6.90517 2.46758ZM8.97027 5.76758C9.33932 6.05302 9.64129 6.41583 9.85495 6.83048C10.0686 7.24512 10.1887 7.70153 10.2069 8.16757V9.36757H12.6082V8.16757C12.6082 8.16757 12.6082 5.98957 8.97027 5.76758ZM8.40597 0.367576C7.99282 0.365655 7.58881 0.489094 7.24735 0.721576C7.61201 1.23082 7.80808 1.84135 7.80808 2.46758C7.80808 3.0938 7.61201 3.70433 7.24735 4.21358C7.58881 4.44606 7.99282 4.5695 8.40597 4.56757C8.96322 4.56757 9.49765 4.34633 9.89169 3.9525C10.2857 3.55867 10.5071 3.02453 10.5071 2.46758C10.5071 1.91062 10.2857 1.37648 9.89169 0.982652C9.49765 0.588825 8.96322 0.367576 8.40597 0.367576Z" fill="#F5019B"/>
</svg>
