<svg width="13" height="13" viewBox="0 0 13 13" fill="none" xmlns="http://www.w3.org/2000/svg">
<path id="Vector" d="M3.0863 12.3676V11.0343H5.75439V8.96761C5.20966 8.84539 4.7234 8.61495 4.29561 8.27628C3.86783 7.93761 3.55366 7.5125 3.35311 7.00095C2.51933 6.90095 1.82185 6.53717 1.26066 5.90961C0.699474 5.28206 0.418658 4.54584 0.418213 3.70095V3.03428C0.418213 2.66761 0.548949 2.35384 0.810422 2.09295C1.07189 1.83206 1.38584 1.70139 1.75226 1.70095H3.0863V0.367615H9.75653V1.70095H11.0906C11.4574 1.70095 11.7716 1.83161 12.0331 2.09295C12.2945 2.35428 12.4251 2.66806 12.4246 3.03428V3.70095C12.4246 4.54539 12.1438 5.28161 11.5822 5.90961C11.0205 6.53761 10.3231 6.90139 9.48972 7.00095C9.28961 7.51206 8.97567 7.93717 8.54788 8.27628C8.1201 8.61539 7.63362 8.84584 7.08844 8.96761V11.0343H9.75653V12.3676H3.0863ZM3.0863 5.56761V3.03428H1.75226V3.70095C1.75226 4.12317 1.87455 4.50384 2.11912 4.84295C2.36369 5.18206 2.68609 5.42361 3.0863 5.56761ZM9.75653 5.56761C10.1567 5.42317 10.4791 5.18139 10.7237 4.84228C10.9683 4.50317 11.0906 4.12273 11.0906 3.70095V3.03428H9.75653V5.56761Z" fill="#3879FE"/>
</svg>
