<svg width="13" height="10" viewBox="0 0 13 10" fill="none" xmlns="http://www.w3.org/2000/svg">
<path id="Vector" d="M8.8227 8.5676V9.7676H0.418213V8.5676C0.418213 8.5676 0.418213 6.1676 4.62045 6.1676C8.8227 6.1676 8.8227 8.5676 8.8227 8.5676ZM6.72158 2.8676C6.72158 2.45226 6.59835 2.04625 6.36747 1.7009C6.1366 1.35556 5.80845 1.0864 5.42452 0.927453C5.04059 0.768509 4.61812 0.726922 4.21055 0.807951C3.80297 0.88898 3.42858 1.08899 3.13474 1.38268C2.84089 1.67637 2.64078 2.05055 2.55971 2.45791C2.47863 2.86527 2.52024 3.28751 2.67927 3.67123C2.8383 4.05496 3.10761 4.38294 3.45313 4.61369C3.79866 4.84444 4.20489 4.9676 4.62045 4.9676C5.17771 4.9676 5.71213 4.74635 6.10617 4.35252C6.50021 3.9587 6.72158 3.42455 6.72158 2.8676ZM8.78668 6.1676C9.15572 6.45305 9.4577 6.81586 9.67135 7.2305C9.88501 7.64515 10.0052 8.10155 10.0233 8.5676V9.7676H12.4246V8.5676C12.4246 8.5676 12.4246 6.3896 8.78668 6.1676ZM8.22238 0.7676C7.80922 0.76568 7.40521 0.889119 7.06376 1.1216C7.42842 1.63084 7.62449 2.24137 7.62449 2.8676C7.62449 3.49383 7.42842 4.10436 7.06376 4.6136C7.40521 4.84608 7.80922 4.96952 8.22238 4.9676C8.77963 4.9676 9.31406 4.74635 9.70809 4.35252C10.1021 3.9587 10.3235 3.42455 10.3235 2.8676C10.3235 2.31065 10.1021 1.7765 9.70809 1.38268C9.31406 0.98885 8.77963 0.7676 8.22238 0.7676Z" fill="#3879FE"/>
</svg>
