<svg width="25" height="25" viewBox="0 0 25 25" fill="none" xmlns="http://www.w3.org/2000/svg">
<path d="M0.208604 0H7.36801C7.40851 0 7.44091 8.92113e-07 7.47169 0.0388902C7.50734 0.0583349 7.53488 0.08815 7.55432 0.128336L16.2674 17.4885C16.2918 17.533 16.3048 17.585 16.3048 17.6383C16.3048 17.6915 16.2918 17.7435 16.2674 17.788L12.7031 24.8697C12.6834 24.9086 12.6558 24.9408 12.623 24.9636C12.5902 24.9863 12.5531 24.9989 12.5152 25C12.4773 24.9989 12.4402 24.9863 12.4074 24.9636C12.3746 24.9408 12.347 24.9086 12.3273 24.8697L0.030388 0.416116C0.0104804 0.374733 0 0.327789 0 0.280003C0 0.232218 0.0104804 0.185275 0.030388 0.143891C0.0473075 0.101792 0.0729736 0.0656314 0.104914 0.0388902C0.136049 0.0152682 0.171802 0.00185813 0.208604 0ZM15.2143 0H24.7894C24.8304 0 24.8655 0.012964 24.8947 0.0388902C24.9271 0.0648164 24.9514 0.0991686 24.9676 0.141947C24.987 0.180836 24.9978 0.224262 25 0.272226C25 0.336393 25 0.375282 24.9676 0.416116L20.1849 9.95372C20.1652 9.99256 20.1376 10.0248 20.1048 10.0476C20.072 10.0703 20.0349 10.0829 19.997 10.084C19.9588 10.0844 19.9213 10.0723 19.8885 10.049C19.8556 10.0252 19.8282 9.99173 19.8091 9.95178L15.0167 0.416116C14.9975 0.375032 14.9873 0.328805 14.9869 0.281712C14.9866 0.234619 14.9961 0.188182 15.0147 0.146698C15.0333 0.105214 15.0603 0.070022 15.0932 0.0443801C15.1261 0.0187383 15.1639 0.00347394 15.203 0H15.2143Z" fill="#3F42FF"/>
</svg>
