<svg width="25" height="25" viewBox="0 0 25 25" fill="none" xmlns="http://www.w3.org/2000/svg">
<path id="Vector" fill-rule="evenodd" clip-rule="evenodd" d="M0 1.25C0 0.559644 0.559644 0 1.25 0H10.625C11.3154 0 11.875 0.559644 11.875 1.25V10.625C11.875 11.3154 11.3154 11.875 10.625 11.875H1.25C0.559644 11.875 0 11.3154 0 10.625V1.25ZM14.375 0C13.6846 0 13.125 0.559644 13.125 1.25V10.625C13.125 11.3154 13.6846 11.875 14.375 11.875H23.75C24.4404 11.875 25 11.3154 25 10.625V1.25C25 0.559644 24.4404 0 23.75 0H14.375ZM14.375 13.125C13.6846 13.125 13.125 13.6847 13.125 14.375V23.75C13.125 24.4404 13.6846 25 14.375 25H23.75C24.4404 25 25 24.4404 25 23.75V14.375C25 13.6847 24.4404 13.125 23.75 13.125H14.375ZM1.25 13.125C0.559644 13.125 0 13.6847 0 14.375V23.75C0 24.4404 0.559644 25 1.25 25H10.625C11.3154 25 11.875 24.4404 11.875 23.75V14.375C11.875 13.6847 11.3154 13.125 10.625 13.125H1.25Z" fill="#3F42FF"/>
</svg>
