<svg width="26" height="25" viewBox="0 0 26 25" fill="none" xmlns="http://www.w3.org/2000/svg">
<g id="Group">
<path id="Vector" fill-rule="evenodd" clip-rule="evenodd" d="M8.49921 12.0513C8.49793 12.2897 8.58699 12.5191 8.74681 12.689C8.90663 12.8589 9.12411 12.9553 9.35141 12.9571L21.8905 13.0554L19.6388 15.0519C19.5529 15.1281 19.4821 15.2213 19.4305 15.3262C19.3789 15.4311 19.3476 15.5457 19.3383 15.6634C19.3289 15.7811 19.3418 15.8996 19.3761 16.0122C19.4104 16.1248 19.4655 16.2292 19.5383 16.3195C19.611 16.4098 19.7 16.4843 19.8001 16.5386C19.9002 16.5928 20.0095 16.6259 20.1217 16.6359C20.2339 16.646 20.3469 16.6327 20.4541 16.5969C20.5614 16.5611 20.6608 16.5035 20.7468 16.4273L24.7657 12.8622C24.8602 12.7785 24.9363 12.6743 24.9887 12.5568C25.0412 12.4392 25.0687 12.3111 25.0694 12.1812C25.0701 12.0513 25.0439 11.9228 24.9928 11.8044C24.9416 11.686 24.8666 11.5807 24.773 11.4955L20.7928 7.86767C20.6209 7.71115 20.3969 7.63258 20.1701 7.64924C19.9432 7.6659 19.7322 7.77642 19.5833 7.95649C19.4344 8.13656 19.3599 8.37143 19.3762 8.60943C19.3925 8.84743 19.4983 9.06907 19.6702 9.22558L21.8991 11.2572L9.36109 11.1589C9.13379 11.1571 8.91529 11.2501 8.75365 11.4175C8.59202 11.5848 8.50049 11.8128 8.49921 12.0513Z" fill="#3F42FF"/>
<path id="Vector_2" d="M18.289 16.9322C18.2933 16.09 18.2954 15.669 18.0599 15.3637C17.9586 15.2324 17.8281 15.1194 17.6761 15.0309C17.3224 14.8255 16.8303 14.8218 15.8461 14.8143L9.88757 14.7692C9.05094 14.7629 8.25001 14.4725 7.66097 13.9618C7.07192 13.4512 6.74302 12.7621 6.74661 12.0463C6.7502 11.3304 7.08599 10.6464 7.68011 10.1447C8.27423 9.64305 9.07802 9.36475 9.91464 9.37108L15.8731 9.41617C16.8573 9.42362 17.3494 9.42734 17.7052 9.22849C17.8582 9.14198 17.9898 9.03048 18.0924 8.90033C18.3308 8.59862 18.3329 8.17757 18.3372 7.33546C18.3542 3.94303 18.3627 2.24561 17.1356 1.18305C15.9099 0.1193 13.9275 0.104301 9.96267 0.0742996L8.56067 0.0636908C4.59302 0.0336682 2.61199 0.0186762 1.37435 1.06379C0.13671 2.1077 0.128198 3.80512 0.111184 7.19755L0.0630537 16.7942C0.0460398 20.1867 0.0375268 21.8841 1.2646 22.9466C2.49167 24.0104 4.47409 24.0254 8.43894 24.0554L9.84094 24.066C13.8072 24.096 15.7896 24.111 17.0259 23.0659C18.2635 22.022 18.272 20.3246 18.289 16.9322Z" fill="#3F42FF"/>
</g>
</svg>
