<svg width="30" height="23" viewBox="0 0 30 23" fill="none" xmlns="http://www.w3.org/2000/svg">
<path d="M29 20.4545H28V13.2955C28 12.753 27.7893 12.2327 27.4142 11.8491C27.0391 11.4655 26.5304 11.25 26 11.25H21V2.04545C21 1.50297 20.7893 0.982697 20.4142 0.5991C20.0391 0.215503 19.5304 0 19 0H11C10.4696 0 9.96086 0.215503 9.58579 0.5991C9.21071 0.982697 9 1.50297 9 2.04545V6.13636H4C3.46957 6.13636 2.96086 6.35187 2.58579 6.73546C2.21071 7.11906 2 7.63933 2 8.18182V20.4545H1C0.734784 20.4545 0.48043 20.5623 0.292893 20.7541C0.105357 20.9459 0 21.206 0 21.4773C0 21.7485 0.105357 22.0087 0.292893 22.2005C0.48043 22.3923 0.734784 22.5 1 22.5H29C29.2652 22.5 29.5196 22.3923 29.7071 22.2005C29.8946 22.0087 30 21.7485 30 21.4773C30 21.206 29.8946 20.9459 29.7071 20.7541C29.5196 20.5623 29.2652 20.4545 29 20.4545ZM9 20.4545H4V8.18182H9V20.4545ZM16.5 12.2727C16.5 12.544 16.3946 12.8041 16.2071 12.9959C16.0196 13.1877 15.7652 13.2955 15.5 13.2955C15.2348 13.2955 14.9804 13.1877 14.7929 12.9959C14.6054 12.8041 14.5 12.544 14.5 12.2727V8.57812L14.3162 8.64077C14.1917 8.68324 14.0601 8.7002 13.9291 8.69068C13.7981 8.68116 13.6702 8.64534 13.5528 8.58527C13.4353 8.52521 13.3305 8.44206 13.2445 8.34059C13.1584 8.23913 13.0928 8.12132 13.0513 7.99389C13.0097 7.86647 12.9931 7.73193 13.0024 7.59795C13.0118 7.46397 13.0468 7.33318 13.1055 7.21305C13.1642 7.09291 13.2455 6.98578 13.3448 6.89778C13.444 6.80977 13.5592 6.74262 13.6838 6.70014L15.1838 6.18878C15.3341 6.13753 15.4942 6.12354 15.6508 6.14798C15.8075 6.17243 15.9562 6.23459 16.0847 6.32935C16.2133 6.42411 16.318 6.54876 16.3902 6.69302C16.4624 6.83729 16.5 6.99703 16.5 7.15909V12.2727ZM26 20.4545H21V13.2955H26V20.4545Z" fill="#3F42FF"/>
</svg>
